<?xml version="1.0" encoding="UTF-8"?>
<svg width="34px" height="40px" viewBox="0 0 34 40" version="1.1" xmlns="http://www.w3.org/2000/svg" xmlns:xlink="http://www.w3.org/1999/xlink">
    <title>11CEA86E-F9F8-456C-BADA-44FD1BA7C644</title>
    <g id="[D-M]-Maquettes" stroke="none" stroke-width="1" fill="none" fill-rule="evenodd">
        <g id="04c-M-Encart-Fa-Darty-Max-Modale" transform="translate(-213.000000, -1003.000000)" fill-rule="nonzero">
            <g id="MODAL" transform="translate(-0.000000, 0.000000)">
                <g id="08.-Alerting-🎺/Modals/Mobile/Ghostlink" transform="translate(0.000000, 392.000000)">
                    <g id="Bloc-3" transform="translate(24.000000, 455.000000)">
                        <g id="Remboursement" transform="translate(140.000000, 144.000000)">
                            <g id="darty/Color/Services/VenteFlash" transform="translate(49.000000, 12.000000)">
                                <g id="VF" transform="translate(17.000000, 20.000000) scale(1, -1) translate(-17.000000, -20.000000) ">
                                    <path d="M17.1366816,0.0858964606 C26.4229026,0.0858964606 33.9515978,7.61459171 33.9515978,16.9008127 C33.9515978,25.2401309 27.8812799,32.1607974 19.9189613,33.486616 L19.9182537,34.1138965 L22.4019825,34.1142609 L22.4019825,39.5484778 L11.8270396,39.5484778 L11.8270396,34.1142609 L14.3112537,34.1138965 L14.3115284,33.4794175 C6.4734109,32.1533594 0.479495827,25.4035201 0.325298236,17.2240619 L0.322253681,16.9008127 C0.322253681,7.61459171 7.85046059,0.0858964606 17.1366816,0.0858964606 Z" id="Combined-Shape" fill="#2D59A9"></path>
                                    <g id="g142" transform="translate(4.882640, 4.685936)" fill="#F9DF0C">
                                        <path d="M24.4168621,12.208431 C24.4168621,5.49525898 18.9738552,0.0527404221 12.2601948,0.0527404221 C5.54751106,0.0527404221 0.104015832,5.49525898 0.104015832,12.208431 C0.104015832,18.9220914 5.54751106,24.3650983 12.2601948,24.3650983 C18.9738552,24.3650983 24.4168621,18.9220914 24.4168621,12.208431" id="path144"></path>
                                    </g>
                                    <g id="g146" transform="translate(4.899341, 13.401632)" fill="#E42029">
                                        <path d="M12.208431,3.41836069 L12.208431,15.6473019 C5.51235078,15.6277684 0.0874123662,10.1945283 0.0874123662,3.49258795 C0.0874123662,2.29762672 0.266632134,1.14563917 0.587958039,0.0542054338 L12.208431,3.41836069 Z" id="path148"></path>
                                    </g>
                                </g>
                            </g>
                        </g>
                    </g>
                </g>
            </g>
        </g>
    </g>
</svg>