<svg width="32" height="30" xmlns="http://www.w3.org/2000/svg"><g fill-rule="nonzero" fill="none"><path d="m.178 9.483 1.986 1.506L.283 14.45c-.94 1.605.68 3.16 1.724 3.713.993.552 2.614.602 4.077.602L8.749 14.6l1.986 1.054-3.45-6.172-7.054.05-.053-.05Zm.366 8.53L4.83 25.64c.888 1.054 2.508 1.304 4.18 1.254h4.547V19.67l-8.623-.05c-1.359.1-3.083-.2-4.442-1.606h.052Z" fill="#005EAD"/><path d="m27.51 3.964-2.351.953-2.247-3.261C21.919.1 19.724.702 18.73 1.305c-.993.602-1.777 1.906-2.509 3.11l2.509 4.265-1.934 1.154 7.317.1 3.397-5.97ZM19.62.1 10.577 0C9.22.2 8.174 1.455 7.39 2.91L5.195 6.724l6.585 3.512 4.233-7.175C16.588 1.907 17.686.55 19.62.15V.1Z" fill="#ED1C27"/><path d="m20.037 29.554.262-2.409 4.076-.3c1.934-.101 2.404-2.209 2.352-3.363-.052-1.104-.836-2.408-1.62-3.612l-5.078.046-.157-2.158-3.606 6.122 3.815 5.72-.044-.046Zm7.36-4.67 4.443-7.527c.47-1.254-.157-2.71-1.097-4.064L28.339 9.58l-6.376 3.813 4.494 7.025c.784 1.054 1.463 2.609.889 4.465h.052Z" fill="#FFDE17"/></g></svg>