<svg width="32" height="32" xmlns="http://www.w3.org/2000/svg"><g fill-rule="nonzero" fill="none"><path d="M15.751 3.146a1.352 1.352 0 1 0 0-2.705 1.352 1.352 0 0 0 0 2.705" fill="#FDDD10"/><path d="M14.705 4.485v22.792c-.037 1.358-1.182 2.45-2.59 2.45-1.43 0-2.59-1.125-2.592-2.514v-.004c0-.56-.468-1.014-1.045-1.014s-1.046.454-1.046 1.014c0 2.512 2.097 4.548 4.683 4.548 2.487 0 4.52-1.883 4.672-4.261.007-.095.011-.19.011-.287V4.485h-2.093Z" fill="#EB1B27"/><path d="M4.341 12.63c1.703 0 3.167.996 3.804 2.423.637-1.427 2.1-2.424 3.803-2.424 1.703 0 3.165.997 3.803 2.424.638-1.427 2.1-2.424 3.803-2.424 1.703 0 3.166.997 3.803 2.424.64-1.427 2.101-2.424 3.804-2.424 1.364 0 2.573.64 3.328 1.627-.997-7.04-7.215-12.463-14.738-12.463S2.01 7.216 1.013 14.256a4.18 4.18 0 0 1 3.328-1.627" fill="#1F5AB1"/></g></svg>