<?xml version="1.0" encoding="UTF-8"?>
<svg width="40px" height="23px" viewBox="0 0 40 23" version="1.1" xmlns="http://www.w3.org/2000/svg" xmlns:xlink="http://www.w3.org/1999/xlink">
    <title>darty/Color/Services/MagasinBrand</title>
    <g id="UI_comex" stroke="none" stroke-width="1" fill="none" fill-rule="evenodd">
        <g id="01e-D-Fnac+" transform="translate(-898.000000, -742.000000)">
            <g id="Group" transform="translate(898.000000, 734.000000)">
                <polygon id="Fill-1" fill="#ED1C27" points="4.07407407 30.962963 35.9259259 30.962963 35.9259259 8 4.07407407 8"></polygon>
                <path d="M31.5740741,16.1481481 L31.5740741,28 L21.2037037,28 L21.2037037,16.1481481 L31.5740741,16.1481481 Z M18.7962963,16.1481481 L18.7962963,28 L8.42592593,28 L8.42592593,16.1481481 L18.7962963,16.1481481 Z" id="Combined-Shape" fill="#FFDE17"></path>
                <polygon id="Fill-4" fill="#005EAD" points="0 30.962963 40 30.962963 40 28 0 28"></polygon>
                <path d="M13.0963704,9.56585185 C13.7334074,9.56585185 14.7993333,9.99251852 14.7993333,12.1451111 C14.7993333,14.296963 13.7237778,14.714 13.0963704,14.714 L13.0963704,14.714 L11.223037,14.714 C11.223037,14.714 11.3822963,13.6125185 11.3822963,12.1451111 C11.3822963,10.8971852 11.2672315,9.90721852 11.232712,9.63830685 L11.223037,9.56585185 Z M26.7628889,9.56614815 L27.1614074,11.0639259 L27.5695556,9.56614815 L29.074,9.56614815 C29.074,9.56614815 28.396963,10.8454074 28.1073333,12.1446667 C27.8191852,13.4439259 27.9977037,14.7135556 27.9977037,14.7135556 L27.9977037,14.7135556 L26.3347407,14.7135556 C26.3347407,14.7135556 26.5036296,13.4542963 26.2147407,12.1446667 C25.9830461,11.0922132 25.5061424,10.0651426 25.3281674,9.70309602 L25.3282963,10.7461481 C25.0169158,10.6238586 24.7000502,10.6010854 24.5503749,10.5977596 L24.4721647,10.5976605 L24.4721647,10.5976605 L24.4616296,10.598 C24.4616296,10.598 24.4216296,11.5298519 24.4616296,12.4128148 C24.4700507,12.5987018 24.4815578,12.8082924 24.4944784,13.0233675 L24.5147103,13.347816 C24.5599368,14.0498313 24.6112593,14.7135556 24.6112593,14.7135556 L24.6112593,14.7135556 L22.9571852,14.7135556 C22.9571852,14.7135556 23.0668148,13.3054074 23.1171852,12.4128148 C23.1668148,11.5283704 23.1171852,10.598 23.1171852,10.598 C22.684543,10.598 22.4026687,10.6810677 22.2883567,10.7228003 C22.3032409,10.8113035 22.31,10.9090834 22.31,11.0141481 C22.31,12.1845185 21.4137037,12.4526667 21.4137037,12.4526667 L21.4137037,12.4526667 L21.4290539,12.4758768 C21.4849375,12.5609112 21.6911966,12.8792194 22.0114815,13.4245185 C22.3996296,14.0852593 22.6885185,14.7134074 22.6885185,14.7134074 L22.6885185,14.7134074 L20.8759259,14.7134074 C20.8759259,14.7134074 20.9055556,14.3963704 20.7262963,13.8408148 C20.547037,13.2852593 20.3077778,12.9682222 20.3077778,12.9682222 C20.3077778,12.9682222 20.2477778,13.2956296 20.3077778,13.8504444 C20.3677778,14.406 20.467037,14.7134074 20.467037,14.7134074 L20.467037,14.7134074 L17.2896296,14.7134074 C17.2896296,14.7134074 17.3303704,14.488963 17.2896296,14.048963 C17.2496296,13.6222963 17.12,13.3645185 17.12,13.3645185 L17.12,13.3645185 L16.3237037,13.3645185 C16.3237037,13.3645185 16.2140741,13.5926667 16.1540741,14.0393333 C16.0940741,14.4852593 16.1540741,14.7134074 16.1540741,14.7134074 L16.1540741,14.7134074 L14.5007407,14.7134074 C14.5007407,14.7134074 14.9088889,13.3748889 15.1577778,12.1452593 C15.4066667,10.9148889 15.5362963,9.566 15.5362963,9.566 L15.5362963,9.566 L17.9074074,9.566 C17.9074074,9.566 18.037037,10.9163704 18.2859259,12.1452593 C18.4528096,12.969744 18.695957,13.843184 18.838067,14.3292488 C18.8872017,13.9130633 18.952963,13.1663081 18.952963,12.1452593 C18.952963,10.6719259 18.832363,9.76139259 18.808243,9.59401926 L18.8040741,9.566 L21.1048148,9.566 C21.3738715,9.566 22.0092813,9.73455218 22.231567,10.4508507 L22.2305185,9.56614815 L26.7628889,9.56614815 Z M13.4541481,12.1451111 C13.4541481,10.4288148 12.7274815,10.5977037 12.7274815,10.5977037 L12.7274815,10.5977037 L12.7274815,13.6821481 C12.7274815,13.6821481 13.4541481,13.8606667 13.4541481,12.1451111 Z M16.7222222,10.5978519 L16.402963,12.3334074 L17.0407407,12.3334074 L16.7222222,10.5978519 Z M20.3150164,10.4386623 L20.3077778,10.4385852 L20.3077778,11.7778519 C20.3077778,11.7778519 20.8759259,11.7778519 20.8759259,11.103037 C20.8759259,10.428963 20.3077778,10.4385852 20.3077778,10.4385852 Z" id="Darty" fill="#FFFFFF"></path>
            </g>
        </g>
    </g>
</svg>