<svg width="40" height="32" xmlns="http://www.w3.org/2000/svg"><g fill="none" fill-rule="evenodd"><path d="M3.81577059 17.4128423c-.18413135.0358033-.40845011.0774521-.63276886.1227542-.60865642.1212929-1.30645581.6561507-1.80916363.0467636-.5984269-.7255653-.99591682-1.6345312-1.16324253-2.5741856-.091335-.5122067.45740566-.7431016.82566838-1.004685 1.82962267-1.2954956 1.81866247-3.2244907-.10156452-4.27228584-.9418465-.51366802-1.1683573-1.09675065-.69560734-2.02398354.13809851-.2703516.25427663-.55897019.33099803-.85270354.23674031-.90750454.72118114-1.27138317 1.68056395-.96157486.95134534.30615492 1.75363196.23674032 2.51207778-.68391646.61961662-.7518697.79424914-1.35248864.51074531-2.25780114-.45375227-1.4525918-.36826272-1.3977908 1.55415632-2.4017451 1.10990289-.5801599 1.62722431-.1863234 2.19861606.72118114.98714866 1.56730856 3.08712296 1.47670425 4.03043076-.10375655.2988481-.49978511.4917476-1.33349097 1.2370412-1.13766873.9301556.24404711 1.956761.4047967 2.669174 1.16324253.2908106.30980831.0942577.72118114.018267 1.09748133-.4676352 2.3104101.860741 3.6059057 3.1083126 2.98263568.8914296-.24696983 1.4788963-.08841228 1.7806671.83516722.0942578.28934927.200937.58673602.3660707.83808994.5911201.89873637.3594946 1.4891258-.5253589 2.0692857-1.8544658 1.21365942-1.7799364 3.16749772.1549042 4.25913362.8154388.4595977 1.1157483.9630362.6926846 1.8391215-.1812086.3763002-.3076163.7810969-.438408 1.1793175-.2601221.7957105-.7350641 1.0346428-1.5768074.8358979-1.6330698-.385799-2.2504943-.0796441-3.1390012 1.2954956-.3726468.5757758-.1183702 1.1259778.0664919 1.6432993.3660706 1.0302587.1293303 1.7002923-.9549988 2.0152154-.2520846.073068-.4990544.1958222-.7211811.3375741-.8665865.5531248-1.4986246.3295367-1.9472621-.5604315-.452291-.8965444-1.0667928-1.315224-2.175965-1.2465401-.9783805.0613771-1.5833835.3529185-1.93118722 1.2406946-.41941031 1.0704462-1.11428697 1.3729477-2.14892982.7920571-.26231412-.1475973-.55897019-.2433164-.8505115-.3236912-.8578183-.2345483-1.25092413-.7394481-.88412278-1.6133414.61742458-1.4708588-.29811743-2.2658386-1.26188433-3.0666639-.22578011-.1877847-.46544314-.2360096-.77890486-.2294335M11.4177651 6.63019782c-2.72616699-.01753631-4.85244574 2.09632087-4.85977589 4.82979468-.00801413 2.6932864 2.05981022 4.829064 4.70998649 4.8663287 2.7210523.0379953 4.9035934-2.0751312 4.9284365-4.7735323.0263045-2.73201249-2.0838993-4.90505476-4.7786471-4.92259108" fill="#ED1C27"/><path d="M27.2311413 29.0547664c-.6444598.292272-1.4416316.2835039-1.4708588 1.2480014-.0263045.8665865-.5830827.984226-1.3349524.9864303-.7803662.0021798-1.0587553-.2879002-1.1625118-1.0448846-.1373678-1.0054157-1.2779593-1.4525919-2.1357776-.8358979-.6459211.4647124-1.0543712.3353821-1.5563484-.200937-.4661738-.4983238-.735064-.8607411-.2301642-1.5497723.6934154-.9462306.2798505-1.9779507-.8731625-2.2008081-.8826614-.1702484-.9206568-.6861085-.9258837-1.3977908-.0057333-.7087596.2156627-1.0119918.9492654-1.114287 1.0865212-.1512507 1.5746154-1.2903808.9301556-2.1993467-.5282816-.7467549-.1760938-1.1362074.3120004-1.6498754.4946703-.5202441.8738933-.5428952 1.46136-.1234849.9615748.6853778 1.9582223.2886186 2.1693888-.9038512.1680564-.9498839.7606379-.844666 1.4167885-.8819307.7431015-.0416487.970343.2856959 1.0711769.9878793.1512507 1.0514485 1.2560388 1.5125076 2.1365082.874624.6627268-.4800568 1.0521792-.3032322 1.5446575.2126279.4676352.4902862.7555231.8505115.2389324 1.5431961-.6970687.9352704-.2820425 1.9962177.8388206 2.2110376.8592796.164403.9557294.6524972.9506146 1.3897533-.0051147.7043755-.2177426 1.025144-.9454999 1.130362-1.0748302.1556348-1.5629244 1.2187742-.936001 2.0860913.5122066.7102209.2878879 1.1201324-.2316256 1.6601049-.5282816.54801-.970343.6459211-1.5490415.127869-.1877848-.1695177-.4559443-.2462391-.6678415-.3551105m.1804779-4.796914c.0197284-1.6213789-1.244348-2.9037223-2.8730337-2.9132769-1.5877676-.0094431-2.8306542 1.1961789-2.8679189 2.7824851-.038726 1.6432993 1.189547 2.9570619 2.7955816 2.9906732 1.5972665.0321499 2.9263733-1.2575002 2.945371-2.8598814" fill="#005EAD"/><path d="M34.5043298 23.5666291c-.4442534-.0540703-.7971719-.2089745-.8475888-.8161695-.0708759-.8643945-.6064644-1.0974814-1.3627181-.7628299-.5012465.2221267-.7789049.004384-1.0529099-.3711855-.2586607-.3536491-.2908106-.6408063.0051148-1.0200292.5260895-.673687.4654431-1.2801513-.4113729-1.6009199-.5407032-.1987449-.4785954-.5947735-.4486375-1.0258747.0306886-.4552136.2177427-.69853.6948767-.7262959.9301556-.0540703 1.2216969-.6130405.8687785-1.4007135-.274005-.6123098.0818361-.8205536.4318319-1.1157483.3594945-.3025015.6393449-.2484312.9893406.0642998.7072983.6327689 1.2648071.3806843 1.5797302-.4325625.1746325-.4486375.4208716-.5955042.8680478-.4859022.4106421.1001032.7781742.1527121.8256684.7431015.0694146.8614717.5677383 1.2319265 1.4204418.8665865.4303706-.184862.7182585-.0796441.9688817.2959254.2455085.3668013.4332932.6700335.073068 1.1179404-.5348577.6641881-.4515602 1.2940342.4047967 1.61188.550202.203129.5165908.5794292.4559443 1.009069-.0599157.420141-.2301642.6795324-.7241038.7116824-.9951862.0657611-1.2341185.6334995-.803748 1.4832803.2513539.4968624-.0606465.6948767-.3704548.9235795-.3076162.2279722-.586736.4815181-.9878793.0942577-.7957105-.7664833-1.3378751-.442792-1.7061378.4639818-.1563655.3828763-.4354852.5100146-.8709705.3726468m.6298461-6.8011693c-1.0711768.0284966-1.9596837.9542681-1.9289951 2.00937.0314192 1.0653314.9484226 1.9355713 2.0203301 1.9158429 1.1047882-.020459 1.9092668-.8760853 1.8851544-2.0071779-.0241125-1.1237858-.8724319-1.9472622-1.9764894-1.918035" fill="#FFDE17"/></g></svg>