<?xml version="1.0" encoding="UTF-8"?>
<svg width="22px" height="38px" viewBox="0 0 22 38" version="1.1" xmlns="http://www.w3.org/2000/svg" xmlns:xlink="http://www.w3.org/1999/xlink">
    <title>56E821FA-7E79-45F5-A343-25C89C36BBFB</title>
    <g id="[D-M]-Maquettes" stroke="none" stroke-width="1" fill="none" fill-rule="evenodd">
        <g id="04c-M-Encart-Fa-Darty-Max-Modale" transform="translate(-79.000000, -861.000000)" fill-rule="nonzero">
            <g id="MODAL" transform="translate(-0.000000, 0.000000)">
                <g id="08.-Alerting-🎺/Modals/Mobile/Ghostlink" transform="translate(0.000000, 392.000000)">
                    <g id="Bloc-3" transform="translate(24.000000, 455.000000)">
                        <g id="darty/Color/Services/SAV" transform="translate(55.047485, 14.727997)">
                            <g id="SAV" transform="translate(10.866396, 18.500449) scale(1, -1) translate(-10.866396, -18.500449) ">
                                <path d="M18.5525941,36.325362 L18.5525941,33.1813658 C18.5525941,32.1282617 17.6990646,31.2747322 16.6464246,31.2742681 C15.5933205,31.2747322 14.7402551,32.1282617 14.7397909,33.1813658 L14.7383986,33.1813658 L14.7383986,36.3146871 C12.8893167,35.5572318 11.5860481,33.7401747 11.5860481,31.6186503 C11.5860481,29.4706707 12.9213415,27.6359767 14.8061611,26.8961583 L14.8061611,10.5820951 C12.9213415,9.84181255 11.5865123,8.00711861 11.5860481,5.85960308 C11.5860481,3.73761455 12.8893167,1.92148568 14.7383986,1.16403046 L14.7383986,4.29735168 L14.7402551,4.29735168 C14.7402551,5.35045579 15.5933205,6.20352117 16.6464246,6.20352117 C17.6990646,6.20352117 18.5525941,5.35045579 18.5525941,4.29735168 L18.5525941,1.15335554 C20.416528,1.90338473 21.7327921,3.72740375 21.7327921,5.85960308 C21.7327921,7.99180242 20.416528,9.81582144 18.5525941,10.5663148 L18.5525941,26.9114745 C20.416528,27.662432 21.7327921,29.486451 21.7327921,31.6186503 C21.7327921,33.7508496 20.416528,35.5744045 18.5525941,36.325362" id="path462" fill="#ED1B27"></path>
                                <path d="M0,3.08319551 L0.000928253954,3.08319551 L0.000928253954,3.08226725 C0.000928253954,1.38077776 1.38031363,0 3.08273138,0 C4.78468501,0 6.16453451,1.38077776 6.16499864,3.08226725 L6.16499864,3.08319551 L6.16592689,3.08319551 L6.16592689,20.7121305 L0,20.7121305 L0,3.08319551 Z" id="path466" fill="#1F5AB1"></path>
                                <polygon id="path470" fill="#FDDD10" points="1.2804335 31.6156335 1.88008556 31.6156335 1.88008556 20.7123625 4.34506393 20.7123625 4.34506393 31.6156335 4.94518011 31.6156335 4.94518011 37.0008988 1.2804335 37.0008988"></polygon>
                            </g>
                        </g>
                    </g>
                </g>
            </g>
        </g>
    </g>
</svg>