<svg width="51" height="24" xmlns="http://www.w3.org/2000/svg"><g fill-rule="nonzero" fill="none"><path d="M46.9892722 3.3725994c-4.614677-4.5023855-11.8480986-4.4973691-16.4760499.0185223l-5.3714674 5.3720076-.6687322.6688094.0000771.0002316-2.2148813 2.2148813-.0206832.0206832-5.3521733 5.35286791c-2.797948 2.86323906-7.76755857 2.8900964-10.60563818-.02006582-1.0761457-1.07676311-1.76463507-2.37193503-2.07009868-3.72869359l-2.26396545-1.4800862L.01980343 12.880714c.28107592 2.63325386 1.45114512 5.08259667 3.35492898 6.98638053 4.34826456 4.47058892 12.10748809 4.44380876 16.41569819.020143l5.3535624-5.35433422 2.318915-2.31891491-.0002316-.0000772.5461764-.5461764.0187538-.0187538 5.3521733-5.3527907c3.0206014-2.9419588 7.7490362-2.9369424 10.7228689-.0368902 1.2286459 1.2607513 1.9417545 2.8199431 2.1450368 4.4265212l2.157385-1.2197707 1.9510158 1.2754148c-.2082988-2.6627351-1.3272001-5.2765405-3.3668142-7.368866" fill="#005EAD"/><path d="m20.3688203 9.75769021 2.9110111-2.85652472.0104188-.01026445-1.4448938-1.44489384-2.0549721-2.05489497c-4.3400067-4.34008383-12.05068639-4.34340243-16.39733025 0C1.42220403 5.36196225.23994098 7.89488694 0 10.6086356l2.02070589-1.14259446 2.05381449 1.34263531c.18491431-1.64416293.91847461-3.24348647 2.20515714-4.53094075 2.87836561-2.87828843 7.74417418-2.88168419 10.62408328 0l3.4650595 3.47995451Z" fill="#FFDE17"/><path d="m47.9707844 11.7917877-2.1430302 1.2117444c-.2626308 1.4563931-.9498854 2.8525116-2.0643105 3.9969582-3.0071728 3.00725-7.7155418 3.00725-10.7228689 0l-2.6237611-2.6238383-.5715674-.5715673-.0103416.0104188-2.8832277 2.8843081.743053.7431302.0124254-.002624.0151265.0151266 2.4317466 2.4318238c2.2202065 2.2202065 5.1470388 3.4424468 8.2480579 3.4424468 3.1008648 0 6.0277743-1.2222403 8.2681238-3.4625898 1.8803222-1.9307956 2.9704368-4.3194007 3.2742798-6.7850277l-1.9737056-1.2903098Z" fill="#ED1C1D"/></g></svg>