<?xml version="1.0" encoding="UTF-8"?>
<svg width="24px" height="24px" viewBox="0 0 24 24" version="1.1" xmlns="http://www.w3.org/2000/svg" xmlns:xlink="http://www.w3.org/1999/xlink">
    <title>1012DDCD-DE90-4474-AE3A-B3C3AC420DC6</title>
    <g id="[D-M]-Maquettes" stroke="none" stroke-width="1" fill="none" fill-rule="evenodd">
        <g id="02a-D-Encart-FA-Darty-Max" transform="translate(-511.000000, -537.000000)">
            <g id="Buy-box" transform="translate(494.000000, 316.000000)">
                <g id="FA/Desktop/Offre-Spé/Label+Chevron-Up/Fold/2-lines" transform="translate(1.000000, 173.000000)">
                    <g id="Offre" transform="translate(16.720000, 48.000342)">
                        <g id="Group-8" transform="translate(11.233920, 11.930442) scale(1, -1) translate(-11.233920, -11.930442) translate(0.000000, -0.000000)">
                            <polygon id="path330" fill="#ED1C27" points="0 4.60042655 4.23701323 0.363839991 10.9702397 7.09813316 22.4678394 18.5942395 18.2308262 22.8306128"></polygon>
                            <path d="M10.2665597,19.5485648 C10.2665597,17.1666982 8.33589312,15.2360316 5.95402652,15.2360316 C3.57237324,15.2360316 1.64149329,17.1666982 1.64149329,19.5485648 C1.64149329,21.9300048 3.57237324,23.8608847 5.95402652,23.8608847 C8.33589312,23.8608847 10.2665597,21.9300048 10.2665597,19.5485648" id="path334" fill="#FFDE17"></path>
                            <path d="M21.1319888,4.31189323 C21.1319888,1.93109329 19.2023889,0 16.8196689,0 C14.4380156,0 12.5075624,1.93109329 12.5075624,4.31189323 C12.5075624,6.69375983 14.4380156,8.62442645 16.8196689,8.62442645 C19.2023889,8.62442645 21.1319888,6.69375983 21.1319888,4.31189323" id="path338" fill="#005EAD"></path>
                        </g>
                    </g>
                </g>
            </g>
        </g>
    </g>
</svg>