<?xml version="1.0" encoding="UTF-8"?>
<svg width="32px" height="40px" viewBox="0 0 32 40" version="1.1" xmlns="http://www.w3.org/2000/svg" xmlns:xlink="http://www.w3.org/1999/xlink">
    <title>BDB23293-0FF3-4DB3-BDA0-39C70B8E6550</title>
    <g id="[D-M]-Maquettes" stroke="none" stroke-width="1" fill="none" fill-rule="evenodd">
        <g id="04c-M-Encart-Fa-Darty-Max-Modale" transform="translate(-74.000000, -1003.000000)">
            <g id="MODAL" transform="translate(-0.000000, 0.000000)">
                <g id="08.-Alerting-🎺/Modals/Mobile/Ghostlink" transform="translate(0.000000, 392.000000)">
                    <g id="Bloc-3" transform="translate(24.000000, 455.000000)">
                        <g id="Intervention" transform="translate(0.000000, 144.000000)">
                            <g id="Group" transform="translate(50.000000, 12.000000)">
                                <path d="M6.27032258,30.6239355 L6.27032258,32.9787742 L4.06193548,32.9787742 C10.9406452,39.1342581 21.5548387,38.9149032 28.1658065,32.3039355 L28.1658065,32.3039355 L29.0019355,31.4678065 L30.6664516,33.1323226 L29.8303226,33.9684516 C25.9477419,37.8510323 20.856129,39.7910323 15.7554839,39.7910323 C10.9483871,39.7910323 6.14,38.0626452 2.35548387,34.6110323 L2.35548387,34.6110323 L2.35548387,36.8923226 L-6.48083737e-14,36.8923226 L-6.48083737e-14,30.6239355 L6.27032258,30.6239355 Z M15.7719355,1.64456262e-14 C20.5803226,1.64456262e-14 25.3880645,1.72967742 29.1725806,5.18129032 L29.1725806,5.18129032 L29.1725806,2.89870968 L31.5364516,2.89870968 L31.5364516,9.16 L25.266129,9.16 L25.266129,6.80516129 L27.4745161,6.80516129 C20.5958065,0.649032258 9.9816129,0.868387097 3.37064516,7.48 L3.37064516,7.48 L2.53451613,8.31548387 L0.87,6.65096774 L1.69709677,5.82258065 C5.58032258,1.94064516 10.6719355,1.64456262e-14 15.7719355,1.64456262e-14 Z" id="Combined-Shape" fill="#005EAD"></path>
                                <path d="M15.7640645,32.4494839 C22.6666452,32.4494839 28.2647097,26.8333548 28.2647097,19.9049677 C28.2647097,12.9765806 22.6666452,7.35206452 15.7640645,7.35206452 C8.86148387,7.35206452 3.26341935,12.9681935 3.26341935,19.8965806 C3.26341935,26.8243226 8.86148387,32.4494839 15.7640645,32.4494839" id="Fill-6" fill="#FFDE17"></path>
                                <path d="M21.9863871,25.8189032 L21.5444516,26.2292258 C20.1883226,27.4892258 18.4599355,28.1840645 16.6792903,28.1840645 C15.0212258,28.1840645 13.4483226,27.6027742 12.1289677,26.5001935 C11.0489677,25.5982581 10.1831613,24.3479355 9.67735484,22.9608387 L8.40122581,22.9608387 C8.24767742,22.9608387 8.12380645,22.8363226 8.12380645,22.6834194 L8.12380645,20.549871 C8.12380645,20.3969677 8.24767742,20.2705161 8.40122581,20.2705161 L9.15154839,20.2705161 C9.1463871,20.1472903 9.14316129,20.0240645 9.14316129,19.9008387 C9.14316129,19.7782581 9.1463871,19.6537419 9.15154839,19.5292258 L8.40122581,19.5292258 C8.24767742,19.5292258 8.12380645,19.4047097 8.12380645,19.2511613 L8.12380645,17.1182581 C8.12380645,16.9647097 8.24767742,16.8401935 8.40122581,16.8401935 L9.67735484,16.8401935 C10.1831613,15.4537419 11.0489677,14.202129 12.1296129,13.3008387 C13.4483226,12.1989032 15.0212258,11.6169677 16.6792903,11.6169677 C18.2960645,11.6169677 19.8373548,12.1718065 21.1373548,13.2214839 L21.6063871,13.5995484 C21.6638065,13.6466452 21.6999355,13.7130968 21.7083226,13.7872903 C21.7154194,13.8601935 21.6947742,13.9330968 21.6483226,13.9905161 L20.3076774,15.6511613 C20.2115484,15.7705161 20.0360645,15.789871 19.9160645,15.6924516 L19.4470323,15.3143871 C18.6315484,14.6550323 17.674129,14.3072903 16.6792903,14.3072903 C15.0399355,14.3072903 13.5212258,15.2672903 12.6276774,16.8401935 L18.5496129,16.8401935 C18.7038065,16.8401935 18.8283226,16.9647097 18.8283226,17.1182581 L18.8283226,19.2511613 C18.8283226,19.4047097 18.7038065,19.5292258 18.5496129,19.5292258 L11.8450968,19.5292258 C11.8373548,19.6530968 11.8347742,19.7782581 11.8347742,19.9008387 C11.8347742,20.0240645 11.8373548,20.1472903 11.8450968,20.2705161 L18.5496129,20.2705161 C18.7038065,20.2705161 18.8283226,20.3969677 18.8283226,20.549871 L18.8283226,22.6834194 C18.8283226,22.8363226 18.7038065,22.9608387 18.5496129,22.9608387 L12.6276774,22.9608387 C13.5212258,24.5343871 15.0399355,25.4943871 16.6792903,25.4943871 C17.7792903,25.4943871 18.8554194,25.0556774 19.7128387,24.2595484 L20.1547742,23.8479355 C20.2083226,23.7982581 20.2792903,23.7711613 20.3547742,23.7737419 C20.4276774,23.7769677 20.498,23.8092258 20.5483226,23.8627742 L22.0005806,25.426 C22.1057419,25.5376129 22.0986452,25.7143871 21.9863871,25.8189032" id="Fill-8" fill="#ED1C27"></path>
                            </g>
                        </g>
                    </g>
                </g>
            </g>
        </g>
    </g>
</svg>